<?xml version="1.0" standalone="no"?>
<!DOCTYPE svg PUBLIC "-//W3C//DTD SVG 20010904//EN"
 "http://www.w3.org/TR/2001/REC-SVG-20010904/DTD/svg10.dtd">
<svg version="1.0" xmlns="http://www.w3.org/2000/svg"
 width="803.000000pt" height="803.000000pt" viewBox="0 0 803.000000 803.000000"
 preserveAspectRatio="xMidYMid meet">
<metadata>
Created by potrace 1.11, written by Peter Selinger 2001-2013
</metadata>
<g transform="translate(0.000000,803.000000) scale(0.100000,-0.100000)"
fill="#000000" stroke="none">
<path d="M2268 6423 c-17 -4 -17 -6 0 -31 9 -15 26 -37 37 -49 46 -50 65 -76
65 -89 0 -27 -46 -7 -100 45 -30 27 -58 47 -63 44 -12 -7 17 -37 58 -59 19
-10 34 -23 32 -29 -2 -6 -62 -11 -153 -11 -171 -2 -164 -1 -164 -12 0 -5 14
-8 30 -7 l30 2 0 -70 c0 -82 20 -126 63 -134 15 -3 27 -10 27 -14 0 -11 -61
-68 -72 -69 -5 0 -17 -9 -27 -19 -15 -15 -16 -21 -6 -24 7 -3 33 13 58 36 71
66 121 107 129 107 4 0 7 -31 6 -68 -1 -38 2 -74 6 -80 19 -31 26 12 26 167
l0 168 53 -3 c28 -1 56 -2 60 -3 5 -1 8 -20 7 -43 -1 -24 -1 -100 -1 -169 1
-105 4 -126 16 -126 13 0 15 26 15 171 l0 171 128 0 127 0 1 -31 c1 -31 1 -32
-45 -30 -55 3 -97 -10 -105 -30 -9 -24 4 -64 21 -64 12 0 14 -9 8 -49 -6 -43
-4 -51 19 -76 35 -38 95 -37 174 3 17 9 32 20 32 24 0 5 7 8 15 8 11 0 15 -12
15 -48 0 -37 4 -49 15 -49 13 0 15 26 15 171 l0 172 65 0 66 0 -3 -168 c-2
-120 0 -169 9 -172 6 -3 14 -2 17 1 3 4 6 81 6 172 l0 166 60 1 59 0 0 -140
c-1 -210 -1 -206 16 -200 13 5 15 34 15 173 l0 167 85 0 85 0 0 -62 c0 -63 0
-63 -27 -61 -22 2 -27 -2 -25 -16 4 -21 63 -77 74 -71 5 3 8 52 8 108 l0 103
63 -1 62 -1 1 -157 c1 -160 6 -194 24 -183 6 4 10 72 10 173 l0 167 133 0 132
0 3 -101 c2 -88 0 -102 -16 -118 -24 -21 -72 -31 -72 -15 0 7 -3 9 -7 6 -12
-12 -32 28 -32 63 0 45 20 71 58 74 40 3 48 12 17 18 -63 12 -124 -56 -103
-116 14 -39 24 -50 65 -64 23 -8 40 -8 52 -2 33 17 40 11 40 -34 0 -41 13 -66
27 -53 3 3 6 45 8 94 1 48 3 92 4 96 2 16 55 57 72 57 31 0 60 -37 55 -68 -2
-15 -5 -32 -5 -38 -1 -6 -12 -23 -25 -37 -16 -17 -20 -30 -14 -39 7 -10 11 -9
23 7 9 11 22 27 29 37 8 9 12 19 9 22 -4 3 -2 6 4 6 5 0 10 8 11 18 4 80 -63
131 -129 97 -15 -8 -30 -15 -32 -15 -3 0 -4 24 -4 53 l0 53 136 -1 136 0 2
-25 c0 -14 1 -91 2 -171 1 -122 3 -146 16 -146 13 0 15 26 15 172 0 171 0 171
23 171 12 -1 22 3 22 9 0 5 -12 9 -27 9 -19 -1 -28 4 -28 14 0 24 -60 122 -75
122 -7 0 -15 4 -17 9 -4 13 -47 16 -85 7 -37 -9 -49 -42 -39 -110 l7 -42 -225
0 c-211 0 -225 1 -238 19 -23 34 -87 95 -92 89 -3 -3 -6 0 -6 6 0 14 -81 52
-118 56 -15 2 -44 -6 -64 -17 -41 -22 -52 -50 -46 -114 l3 -38 -60 -1 c-60 0
-60 0 -95 45 -51 68 -54 71 -72 89 -10 9 -18 22 -18 29 0 15 -26 18 -34 4 -3
-5 26 -40 64 -77 38 -38 68 -73 67 -79 -2 -6 -105 -10 -280 -11 -268 0 -276 0
-286 20 -14 27 -35 60 -42 66 -12 11 -54 86 -51 93 1 4 1 6 0 6 -2 -1 -11 -3
-20 -6z m991 -52 c38 -20 136 -109 128 -118 -7 -7 -265 -9 -261 -1 2 3 0 17
-5 30 -6 16 -5 34 4 55 23 55 69 67 134 34z m752 -22 c29 -33 55 -86 46 -95
-3 -3 -32 -7 -63 -8 -71 -2 -94 15 -94 72 0 46 14 62 54 62 20 0 38 -10 57
-31z m-1801 -128 c11 -2 3 -140 -9 -154 -13 -17 -58 -32 -81 -28 -33 6 -44 30
-46 104 -1 63 2 73 18 77 16 4 90 4 118 1z m570 -97 l0 -102 -35 -31 c-66 -58
-150 -67 -173 -18 -12 24 -11 31 2 53 13 19 25 24 57 24 36 0 40 2 29 15 -10
12 -24 14 -60 9 -42 -5 -49 -4 -59 14 -22 40 -5 52 74 52 l73 0 -2 33 c-3 44
6 52 53 52 l41 0 0 -101z"/>
<path d="M6238 6398 c-45 -26 -59 -67 -47 -133 3 -14 -2 -20 -18 -21 -39 -3
-43 -4 -43 -12 0 -5 15 -8 34 -7 l34 2 -1 -161 c0 -89 3 -167 7 -174 19 -31
26 12 26 166 l0 167 158 0 157 0 0 -45 0 -45 -92 0 c-84 -1 -93 -3 -111 -25
-12 -15 -18 -35 -15 -53 6 -57 85 -165 114 -155 7 2 -1 16 -20 35 -17 17 -31
36 -31 42 0 6 -5 11 -11 11 -5 0 -8 4 -4 9 3 5 1 12 -5 16 -15 9 -13 92 3 98
6 2 49 5 95 6 l82 2 0 -119 c0 -99 3 -119 15 -119 13 0 15 26 15 171 l0 171
110 0 110 0 0 -60 c0 -33 -4 -66 -8 -72 -17 -27 -81 8 -82 45 0 17 -20 5 -20
-12 0 -17 94 -159 134 -203 17 -20 34 -29 43 -26 14 5 14 8 2 17 -24 18 -89
102 -89 115 0 6 -4 11 -10 11 -5 0 -10 7 -10 15 0 9 9 15 23 15 13 0 36 15 54
35 28 30 37 35 65 30 18 -4 36 -11 40 -18 19 -30 -1 -127 -26 -127 -6 0 -6 -4
1 -11 9 -9 16 -8 27 4 15 15 37 60 41 82 2 16 -37 85 -46 79 -4 -2 -10 0 -14
5 -5 10 -16 9 -66 -4 -26 -6 -27 -5 -26 37 l0 44 119 0 118 0 0 -81 c1 -87 13
-115 61 -131 35 -12 41 -12 71 3 45 22 48 18 48 -63 0 -56 3 -75 13 -72 9 3
13 51 17 174 l5 169 57 1 57 0 -2 -160 c-1 -89 2 -167 7 -174 19 -31 26 11 26
167 l0 168 153 -2 c83 -2 155 -3 160 -4 4 0 7 -19 7 -41 0 -22 -3 -41 -7 -41
-5 -1 -47 -2 -94 -3 -67 -2 -91 -6 -104 -20 -23 -23 -22 -78 3 -120 24 -41 72
-96 84 -96 16 0 8 20 -17 42 -13 11 -22 24 -20 28 3 5 -2 11 -11 14 -8 3 -13
10 -9 15 3 5 1 12 -5 16 -5 3 -10 26 -10 49 0 52 8 56 118 56 l72 0 -2 -115
c-2 -80 1 -116 9 -119 6 -3 14 -2 17 1 3 4 6 81 6 173 0 153 2 167 18 167 34
0 43 3 38 12 -3 5 -27 7 -52 4 -39 -3 -49 0 -65 19 -31 38 -34 42 -75 78 -44
40 -106 72 -144 74 -14 1 -42 -7 -62 -18 -46 -24 -57 -61 -45 -141 1 -6 -160
-9 -428 -10 -419 -1 -430 0 -448 20 -58 63 -104 106 -119 111 -10 3 -18 10
-18 16 0 6 -3 8 -6 5 -4 -3 -14 -2 -24 3 -37 20 -75 19 -112 -2z m205 -94 c26
-26 45 -49 43 -51 -2 -3 -61 -5 -131 -6 l-126 -2 -8 30 c-13 51 17 107 64 117
31 7 107 -36 158 -88z m1115 67 c39 -20 136 -110 128 -119 -3 -2 -61 -5 -130
-6 -137 -1 -136 -2 -136 60 0 42 37 84 75 84 14 0 43 -9 63 -19z m-323 -150
c6 -1 11 -31 10 -75 0 -71 -1 -75 -31 -95 -76 -52 -106 -28 -109 88 -2 79 -2
80 24 83 22 3 71 2 106 -1z"/>
<path d="M1165 6405 c-5 -2 -22 -6 -37 -9 -22 -5 -29 -14 -35 -44 -4 -20 -6
-41 -4 -47 2 -5 5 -21 7 -35 l5 -26 -407 1 c-275 0 -409 -3 -415 -11 -6 -7 5
-10 34 -8 l43 2 2 -77 2 -76 -60 0 -60 0 0 57 c0 74 -12 103 -47 116 -50 17
-98 -23 -85 -70 7 -29 30 -22 24 7 -8 47 37 71 65 35 6 -9 11 -45 10 -81 -1
-60 -3 -66 -21 -64 -45 3 -47 -16 -5 -56 22 -21 45 -39 50 -39 5 0 9 16 9 35
l0 36 58 -3 57 -3 1 -67 c2 -74 9 -102 24 -93 6 4 10 72 10 174 l0 168 63 -1
62 -1 2 -145 c2 -212 1 -200 18 -194 13 5 15 34 15 173 l0 167 113 -2 c61 -1
116 -2 120 -3 4 0 6 -28 4 -62 -4 -64 -14 -79 -54 -79 -22 0 -63 31 -63 48 0
5 -7 9 -15 9 -18 0 -18 1 -2 -28 36 -68 152 -219 168 -219 22 0 -6 46 -53 89
-10 8 -18 21 -18 28 0 7 -4 13 -10 13 -5 0 -10 9 -10 20 0 11 5 21 10 21 6 1
13 3 18 4 4 2 17 6 29 10 25 8 33 32 33 100 l0 51 159 0 159 0 0 -46 1 -46
-82 2 c-127 2 -158 -25 -129 -112 15 -46 102 -150 102 -122 0 10 -8 25 -19 35
-36 34 -61 87 -61 129 0 50 9 54 117 54 l73 0 -2 -108 c-1 -60 2 -114 6 -120
19 -31 26 12 26 167 l0 167 60 0 60 -1 0 -166 c0 -139 2 -168 15 -173 13 -5
15 18 15 167 l0 173 79 -1 c44 0 81 -2 83 -5 36 -55 38 -103 4 -125 -13 -9
-28 -15 -32 -14 -29 5 -32 -2 -16 -41 11 -26 28 -45 49 -55 44 -21 109 -22
129 -2 4 4 13 7 21 7 9 0 13 -16 13 -53 0 -41 4 -54 15 -54 13 0 15 26 15 173
l0 172 30 -2 c17 -1 30 3 30 8 0 8 -70 11 -215 10 -170 0 -215 3 -215 13 0 23
-2 27 -21 55 -10 14 -19 29 -19 33 0 10 -23 29 -55 45 -38 18 -38 18 -50 15z
m66 -51 c10 -9 19 -23 19 -31 0 -8 4 -12 8 -9 5 3 9 0 10 -7 0 -7 4 -22 7 -34
8 -25 7 -25 -60 -25 -84 0 -83 -1 -90 43 -4 24 -2 51 5 68 10 26 14 28 46 21
20 -5 44 -16 55 -26z m410 -134 c1 -3 2 -46 3 -97 1 -89 0 -92 -26 -110 -16
-10 -28 -21 -28 -24 0 -13 -74 3 -101 21 -34 25 -29 52 12 67 40 16 55 56 36
105 -8 20 -14 38 -12 40 5 5 115 3 116 -2z"/>
<path d="M4637 6355 c-4 -8 -1 -18 6 -22 24 -15 37 -11 37 13 0 27 -34 35 -43
9z"/>
<path d="M5073 6250 c-12 -5 -29 -20 -38 -33 -20 -32 -6 -74 29 -83 33 -8 58
1 31 12 -41 16 -49 65 -12 81 62 29 115 -66 69 -123 -31 -38 -90 -54 -84 -23
2 12 -10 15 -58 16 -33 0 -60 -3 -60 -8 0 -9 6 -10 48 -13 9 0 25 -13 35 -29
37 -59 95 -97 142 -92 34 4 75 18 86 31 24 29 38 16 37 -34 -1 -26 1 -53 6
-60 19 -31 26 11 26 167 l0 167 64 0 64 1 0 -146 c1 -211 0 -201 17 -195 13 5
15 34 15 173 l0 167 153 -1 152 0 2 -51 2 -52 -95 2 c-111 2 -124 -2 -101 -37
21 -32 46 -57 58 -57 5 0 9 17 9 38 l0 38 63 -1 62 0 1 -96 c1 -101 7 -134 24
-124 6 4 10 72 10 175 l0 168 25 -3 c14 -1 28 2 31 6 3 5 2 9 -3 10 -42 5
-638 2 -646 -3 -14 -9 -12 -10 28 -12 l30 -1 1 -89 c1 -78 -2 -91 -21 -112
-46 -50 -118 -62 -169 -29 -23 15 -40 65 -18 51 14 -9 88 33 101 57 23 43 17
90 -14 123 -8 8 -74 36 -79 33 -1 0 -11 -4 -23 -9z"/>
<path d="M4314 6238 c-7 -11 8 -14 84 -13 l72 1 0 -73 0 -73 -30 0 c-23 0 -35
7 -49 31 -10 17 -21 26 -25 21 -7 -12 13 -72 24 -72 5 0 11 -8 15 -19 3 -10
13 -28 23 -39 9 -11 26 -33 37 -48 41 -56 50 -64 63 -56 10 7 4 18 -23 45 -21
21 -33 37 -29 37 4 0 -2 9 -14 20 -31 30 -28 57 7 65 33 7 41 26 41 103 0 28
3 52 8 53 48 3 122 3 123 -1 1 -3 2 -31 3 -62 l2 -58 -58 0 c-32 0 -58 -4 -58
-10 0 -9 29 -13 85 -12 30 0 35 -15 35 -110 0 -65 3 -87 13 -85 9 1 13 47 17
172 l5 170 103 1 102 0 0 -73 0 -73 -30 0 c-23 0 -35 7 -50 32 -15 24 -21 28
-25 16 -5 -13 41 -101 70 -134 6 -6 17 -22 25 -34 33 -49 55 -69 67 -62 10 6
4 18 -20 45 -53 59 -67 80 -67 99 0 16 18 23 36 16 14 -7 33 52 34 105 0 52 2
57 23 58 44 2 50 4 54 14 3 11 -686 15 -693 3z"/>
<path d="M241 5620 c-9 -6 -8 -331 1 -345 4 -6 33 -11 65 -10 l58 0 0 180 0
179 -58 1 c-32 0 -62 -2 -66 -5z"/>
<path d="M505 5445 l0 -180 65 0 65 0 -2 175 c0 96 -2 177 -2 180 -1 3 -29 5
-64 5 l-62 0 0 -180z"/>
<path d="M7401 5620 c-11 -8 -8 -340 4 -341 5 0 35 -2 65 -3 l55 -3 0 176 0
176 -58 0 c-33 0 -62 -2 -66 -5z"/>
<path d="M7655 5453 c0 -95 2 -174 5 -174 3 -1 32 -2 65 -3 l60 -1 0 174 0
175 -65 0 -65 1 0 -172z"/>
<path d="M770 5443 l0 -173 275 0 275 0 0 -1015 0 -1015 -275 0 -275 0 0 -170
0 -170 1030 0 1030 0 0 175 0 175 -272 2 -273 3 0 995 c0 547 1 1003 3 1013 4
16 25 17 273 17 l269 0 0 168 0 168 -1030 0 -1030 0 0 -173z"/>
<path d="M2974 5453 l0 -169 275 1 276 0 0 -1018 0 -1017 -276 0 -277 0 3 -97
c1 -54 3 -133 4 -176 l1 -77 1033 2 1032 3 1 168 1 167 -279 0 -278 0 2 1017
3 1018 273 -1 272 0 -2 170 -3 171 -1031 3 -1030 3 0 -168z"/>
<path d="M5200 5448 l0 -174 265 0 265 1 0 -1187 0 -1188 485 0 485 0 2 1187
3 1187 278 0 277 0 0 171 0 170 -1030 4 -1030 3 0 -174z"/>
<path d="M2445 4265 l0 -860 63 -1 c34 0 63 2 63 5 1 3 2 391 3 861 l1 855
-65 0 -65 0 0 -860z"/>
<path d="M2705 4932 c0 -105 3 -192 6 -192 3 0 13 18 22 39 10 22 36 59 59 82
l42 43 1 96 c2 132 5 127 -68 126 l-62 -1 0 -193z"/>
<path d="M2986 5017 c0 -93 3 -109 20 -122 10 -8 16 -15 12 -15 -3 0 11 -19
32 -42 22 -23 38 -44 36 -47 -2 -3 4 -13 13 -23 15 -15 16 -2 15 165 -1 100
-2 184 -3 187 -1 3 -29 6 -64 5 l-62 0 1 -108z"/>
<path d="M3252 5120 c-4 -3 -7 -390 -7 -860 l0 -855 65 0 65 0 0 857 c0 565
-3 858 -10 859 -35 4 -107 4 -113 -1z"/>
<path d="M4649 5120 c-1 -3 -2 -109 -3 -237 -1 -249 -5 -235 46 -193 10 8 35
24 56 36 l37 21 0 189 0 190 -67 0 c-38 -1 -69 -3 -69 -6z"/>
<path d="M4915 4955 l0 -170 65 0 65 0 0 168 c0 92 -2 168 -5 168 -3 1 -32 2
-65 3 l-60 1 0 -170z"/>
<path d="M5191 5120 c-8 -6 -9 -389 -1 -387 9 3 70 -37 70 -45 0 -4 7 -8 15
-8 9 0 18 -7 21 -15 15 -39 19 3 19 223 l0 237 -58 0 c-32 0 -62 -2 -66 -5z"/>
<path d="M5447 5115 c-2 -9 -1 -2201 2 -2216 1 -3 29 -5 64 -5 l62 1 0 1115 0
1115 -62 0 c-35 0 -64 -4 -66 -10z"/>
<path d="M6855 4894 c0 -214 1 -231 17 -223 9 5 18 12 20 16 4 9 56 42 78 49
13 4 15 32 14 187 -1 100 -2 187 -3 192 0 6 -29 10 -64 10 l-62 1 0 -232z"/>
<path d="M7115 4958 c0 -92 2 -168 5 -168 3 -1 32 -2 65 -3 l60 -2 0 170 0
170 -65 1 -65 0 0 -168z"/>
<path d="M7395 4935 l-1 -190 51 -34 c27 -19 56 -41 63 -48 7 -7 14 -13 15
-13 1 0 2 107 2 237 l0 238 -65 0 -65 1 0 -191z"/>
<path d="M7662 5120 c-4 -3 -8 -504 -7 -1115 l0 -1109 65 -1 65 -1 0 1115 0
1115 -58 1 c-32 0 -61 -2 -65 -5z"/>
<path d="M239 5115 c-4 -1 -3 -2215 1 -2216 3 -1 32 -2 65 -3 l60 -2 0 1102
c0 606 -4 1106 -8 1111 -6 5 -104 13 -118 8z"/>
<path d="M509 5111 c-1 -3 -2 -112 -3 -241 l-1 -236 23 25 c12 13 22 20 22 15
0 -5 5 -1 11 9 5 9 17 17 24 17 8 0 15 5 15 11 0 5 3 8 8 6 21 -13 27 31 27
208 l0 190 -62 1 c-35 0 -63 -2 -64 -5z"/>
<path d="M779 5115 c-1 0 -2 -78 -3 -172 l-1 -173 65 0 65 0 -1 168 c-1 92 -2
169 -3 172 -1 4 -96 8 -122 5z"/>
<path d="M1042 5111 c-4 -3 -8 -89 -7 -190 l0 -184 35 -20 c19 -10 37 -23 38
-28 2 -5 10 -9 18 -9 8 0 14 -4 14 -9 0 -5 6 -11 13 -14 10 -4 12 45 12 226
l0 231 -57 1 c-32 1 -61 -1 -66 -4z"/>
<path d="M2863 4715 c-17 -7 -34 -11 -37 -8 -3 4 -6 1 -6 -5 0 -6 -9 -13 -20
-17 -19 -6 -61 -65 -68 -95 -10 -44 -9 -86 3 -114 15 -36 80 -108 89 -99 3 4
6 1 6 -6 0 -7 4 -10 9 -6 5 3 12 1 15 -4 11 -17 138 -1 144 19 2 5 10 10 18
10 8 0 14 4 14 8 0 5 8 17 19 28 27 30 37 54 40 100 2 42 -24 124 -41 124 -5
0 -6 5 -3 10 4 6 1 9 -7 8 -7 -2 -12 3 -10 10 1 8 -2 11 -8 7 -5 -3 -10 -3
-10 2 0 10 -45 29 -85 36 -16 3 -44 -1 -62 -8z"/>
<path d="M7169 4725 c-3 -2 -14 -6 -25 -8 -83 -16 -148 -100 -143 -185 4 -67
29 -111 88 -152 61 -42 165 -32 212 22 9 10 19 14 23 10 4 -4 6 -2 5 3 -2 6 5
22 15 38 12 17 19 46 19 80 1 90 -56 165 -139 182 -6 2 -20 6 -31 9 -11 3 -22
4 -24 1z"/>
<path d="M4897 4702 c-33 -16 -77 -58 -69 -66 3 -3 1 -6 -5 -6 -14 0 -26 -43
-29 -95 -1 -41 12 -84 31 -97 5 -4 6 -8 2 -8 -12 0 40 -50 53 -50 5 0 10 -4
10 -8 0 -5 7 -10 15 -11 26 -5 119 -4 137 0 25 7 81 61 99 96 33 62 6 185 -47
214 -13 7 -24 16 -24 20 0 13 -66 30 -107 27 -21 -1 -50 -8 -66 -16z"/>
<path d="M810 4706 c-3 -3 -17 -7 -32 -10 -36 -6 -83 -53 -106 -105 -39 -87 1
-186 95 -235 38 -19 101 -21 140 -4 15 7 44 30 64 51 50 52 64 121 36 186 -6
14 -11 28 -11 31 -2 12 -53 56 -81 71 -30 15 -96 25 -105 15z"/>
<path d="M5277 4398 c-16 -15 -42 -33 -58 -40 -16 -7 -30 -17 -30 -23 -4 -33
-3 -935 1 -936 3 -1 32 -2 65 -3 l60 -1 0 512 c0 281 -3 513 -5 515 -3 2 -18
-9 -33 -24z"/>
<path d="M6855 3918 c-1 -282 3 -516 7 -519 7 -4 92 -4 118 0 4 1 5 895 1 939
0 7 -5 10 -11 7 -5 -3 -10 -2 -10 3 0 6 -13 15 -30 21 -16 5 -30 15 -30 20 0
6 -5 11 -11 11 -7 0 -17 7 -23 15 -8 11 -11 -118 -11 -497z"/>
<path d="M7506 4414 c-4 -9 -9 -14 -12 -11 -3 2 -17 -6 -31 -19 -14 -13 -32
-24 -39 -24 -8 0 -14 -5 -14 -11 0 -5 -3 -8 -8 -6 -4 3 -7 -321 -7 -719 0
-398 2 -725 5 -725 3 -1 32 -2 65 -3 l60 -2 0 768 c0 422 -3 768 -6 768 -4 0
-10 -7 -13 -16z"/>
<path d="M505 3910 c0 -281 2 -510 5 -511 21 -4 120 -4 121 1 0 3 2 212 2 465
l2 460 -45 29 c-25 15 -46 32 -48 37 -2 5 -10 9 -17 9 -7 0 -15 4 -17 10 -1 5
-3 -220 -3 -500z"/>
<path d="M4649 4419 c-4 -14 -3 -1019 1 -1020 3 -1 34 -2 70 -3 l65 -2 0 465
0 464 -50 33 c-28 18 -58 41 -67 50 -10 10 -19 16 -19 13z"/>
<path d="M1150 4388 c0 -6 -3 -9 -6 -5 -3 3 -15 -3 -27 -14 -11 -10 -33 -25
-49 -31 -15 -7 -29 -15 -29 -18 -4 -17 -3 -920 1 -921 21 -5 111 -4 117 0 11
7 11 1001 1 1001 -5 0 -8 -5 -8 -12z"/>
<path d="M3104 4323 c-4 -10 -8 -20 -8 -23 -4 -14 -45 -69 -76 -100 l-35 -36
0 -379 0 -380 63 -1 c34 0 62 2 63 5 2 9 4 931 3 931 -1 0 -5 -8 -10 -17z"/>
<path d="M2705 3862 l0 -457 65 0 65 0 0 380 0 380 -31 30 c-17 17 -33 38 -37
48 -3 9 -11 17 -16 17 -5 0 -14 14 -20 30 -5 17 -14 30 -18 30 -4 0 -8 -206
-8 -458z"/>
<path d="M4919 4295 c-1 0 -2 -201 -3 -447 -1 -295 2 -448 9 -449 5 -1 35 -2
65 -3 l55 -1 0 447 c0 247 -2 448 -5 449 -4 0 -113 4 -121 4z"/>
<path d="M7117 4291 c-3 -6 -1 -880 2 -891 0 -3 29 -5 64 -5 l62 -1 0 450 0
450 -63 2 c-34 1 -64 -1 -65 -5z"/>
<path d="M775 3842 l0 -446 65 0 65 -1 0 442 0 443 -50 1 c-27 0 -57 2 -65 4
-13 2 -15 -52 -15 -443z"/>
<path d="M506 3080 c1 -91 2 -170 3 -176 1 -6 26 -10 64 -10 l62 1 -1 170 c-1
94 -2 173 -3 176 -1 3 -29 5 -63 5 l-63 -1 1 -165z"/>
<path d="M5185 3070 l0 -175 65 0 65 0 -1 170 c-1 94 -2 173 -3 176 -1 3 -29
5 -64 5 l-62 -1 0 -175z"/>
<path d="M6985 3070 l0 -175 65 0 65 0 -1 165 c-1 91 -2 170 -3 176 -1 6 -26
10 -64 10 l-62 -1 0 -175z"/>
<path d="M213 2494 c-2 -6 -3 -36 -1 -65 l3 -54 117 0 118 1 2 -346 3 -345 75
0 75 0 5 346 5 345 105 -1 c58 -1 111 1 118 3 8 3 12 25 12 63 0 49 -3 59 -17
60 -10 1 -152 2 -317 3 -212 1 -300 -2 -303 -10z"/>
<path d="M1334 2501 c-7 -8 -4 -811 4 -812 32 -5 134 -4 142 1 7 4 9 139 8
410 l-3 404 -73 1 c-41 0 -75 -2 -78 -4z"/>
<path d="M2032 2095 l3 -409 73 -1 c43 0 73 3 73 10 1 5 2 84 3 175 l1 165 25
-1 c99 -5 112 -8 145 -41 18 -18 36 -42 40 -53 3 -11 10 -20 14 -20 5 0 14
-13 21 -30 7 -16 15 -30 19 -30 3 0 17 -20 31 -45 14 -25 28 -45 33 -45 4 0 5
-4 2 -10 -3 -5 -1 -10 4 -10 6 0 11 -5 11 -10 0 -6 9 -21 20 -33 18 -19 32
-22 110 -22 l88 -1 -19 27 c-10 15 -19 32 -19 38 0 6 -5 11 -12 11 -6 0 -9 3
-5 6 3 3 2 11 -4 18 -20 24 -59 87 -59 96 0 6 -5 10 -11 10 -5 0 -8 4 -5 9 3
5 -1 12 -10 15 -9 4 -14 9 -11 12 3 4 -21 32 -54 64 -62 60 -68 70 -45 70 8 0
27 5 43 12 15 6 31 11 36 10 4 -1 7 2 7 8 0 5 5 10 10 10 14 0 60 46 60 60 0
5 5 10 10 10 6 0 9 3 9 8 -1 4 0 9 1 12 34 89 11 193 -59 257 -52 48 -105 56
-359 57 l-222 1 2 -410z m434 265 c39 -13 63 -62 54 -107 -4 -18 -5 -33 -2
-33 2 0 -7 -9 -21 -21 -32 -24 -58 -28 -199 -32 -92 -2 -108 0 -109 13 -3 76
2 185 10 189 15 9 233 1 267 -9z"/>
<path d="M3216 2225 c2 -273 4 -307 19 -370 9 -38 95 -155 95 -130 0 4 8 1 18
-8 49 -45 300 -56 349 -16 7 6 13 8 13 5 0 -7 56 29 75 49 19 19 46 66 51 88
3 12 9 42 13 67 5 24 10 169 11 320 l1 275 -75 0 c-41 -1 -77 -3 -80 -6 -3 -3
-6 -137 -6 -298 -1 -326 -5 -347 -66 -376 -43 -20 -144 -19 -188 2 -38 18 -65
63 -71 116 -2 18 -4 151 -4 297 l-1 265 -78 0 -78 1 2 -281z"/>
<path d="M4420 2502 c-12 -4 -14 -811 -2 -813 21 -4 128 -5 137 -2 7 2 10 60
10 156 l-1 153 96 -1 c80 -1 142 5 206 18 7 2 19 9 28 16 9 7 16 10 16 6 0
-19 75 74 93 115 22 48 26 137 8 181 -5 15 -7 30 -4 33 4 3 1 6 -6 6 -7 0 -10
4 -7 8 6 11 -69 93 -78 85 -3 -3 -6 -1 -6 5 0 7 -8 12 -18 12 -10 0 -22 3 -26
7 -3 4 -14 8 -24 10 -23 5 -409 9 -422 5z m391 -155 c77 -51 59 -178 -28 -205
-45 -14 -202 -21 -209 -10 -3 4 -6 59 -7 123 l-2 114 25 3 c60 7 196 -8 221
-25z"/>
<path d="M5697 2498 c-7 -4 -12 -11 -13 -15 0 -4 -4 -17 -8 -28 -15 -39 -19
-50 -21 -55 -11 -32 -18 -49 -31 -73 -7 -16 -14 -32 -14 -37 0 -5 -5 -21 -12
-37 -6 -15 -12 -30 -12 -33 -2 -7 -46 -120 -57 -145 -11 -26 -32 -78 -34 -87
-2 -5 -4 -10 -5 -13 -1 -3 -3 -8 -5 -12 -3 -12 -16 -46 -26 -68 -12 -27 -31
-79 -30 -83 1 -1 -6 -16 -15 -33 -8 -17 -17 -38 -19 -47 -2 -10 -5 -23 -7 -31
-2 -12 12 -15 70 -16 39 -1 78 2 85 7 6 4 8 8 3 8 -5 0 -3 7 4 15 7 8 9 15 5
15 -4 0 0 11 9 25 9 14 14 25 11 25 -3 0 1 13 10 30 8 16 15 32 15 35 -3 26
22 31 180 31 l165 0 13 -41 c7 -22 17 -49 22 -60 4 -11 14 -35 22 -52 7 -18
15 -34 18 -34 3 -1 39 -2 81 -3 80 -2 81 -1 61 44 -11 27 -25 62 -26 70 -1 3
-5 11 -9 17 -5 7 -10 21 -12 31 -2 10 -13 40 -25 68 -45 103 -52 119 -55 134
-2 8 -11 32 -19 52 -9 21 -15 39 -14 40 1 2 -5 14 -12 28 -8 14 -15 27 -16 30
0 3 -4 13 -7 23 -4 9 -10 25 -14 35 -3 9 -7 19 -8 22 -1 3 -9 22 -18 44 -9 21
-17 44 -17 51 0 6 -3 15 -7 18 -3 4 -16 30 -27 59 l-21 53 -73 0 c-41 0 -79
-3 -85 -7z m124 -313 c18 -49 36 -92 39 -95 3 -3 6 -10 7 -15 1 -6 5 -23 8
-38 8 -31 15 -29 -105 -29 -120 1 -112 -1 -100 22 6 11 8 24 5 29 -3 5 -2 11
3 13 4 1 21 39 37 83 48 134 56 151 65 135 4 -8 23 -55 41 -105z"/>
<path d="M6510 2440 l0 -65 120 1 120 0 0 -342 c0 -265 3 -343 13 -346 6 -2
41 -4 77 -4 l65 1 3 345 2 346 118 -1 117 0 0 65 0 64 -318 1 -317 0 0 -65z"/>
<path d="M7634 2495 c-2 -5 -3 -190 -2 -410 l3 -400 75 0 75 0 0 409 0 410
-74 1 c-41 0 -75 -4 -77 -10z"/>
</g>
</svg>
